<?xml version="1.0" encoding="UTF-8"?>
<svg version="1.1" xmlns="http://www.w3.org/2000/svg" width="1524" height="1091">
<path d="M0 0 C1.66114836 -0.00697185 3.32229642 -0.01401287 4.98344421 -0.02111816 C10.28714301 -0.04048186 15.59080098 -0.04529614 20.89453125 -0.046875 C22.24628323 -0.04775871 22.24628323 -0.04775871 23.62534332 -0.04866028 C50.02608646 -0.0608645 76.28147744 0.15795968 102.55975342 2.97528076 C104.74483635 3.20713644 106.93091458 3.42570062 109.11767578 3.64111328 C137.088425 6.42001031 164.77589402 10.91341185 192.14453125 17.328125 C192.84755371 17.49211792 193.55057617 17.65611084 194.27490234 17.82507324 C202.90765226 19.85490027 211.34661506 22.23066355 219.70703125 25.203125 C219.83561523 24.41486328 219.96419922 23.62660156 220.09667969 22.81445312 C220.70703125 20.203125 220.70703125 20.203125 222.47265625 18.421875 C228.293144 15.2470635 235.24326506 16.88962925 241.32861328 18.64086914 C276.98761608 29.76095056 311.67240875 47.69058538 340.70703125 71.203125 C341.25149902 71.64317871 341.7959668 72.08323242 342.35693359 72.53662109 C355.54641849 83.29514814 368.17890924 95.19844132 378.68359375 108.62109375 C380.88417372 111.42916973 383.19665764 114.12054835 385.51953125 116.828125 C419.76960514 158.00221074 446.61729796 212.21477493 446.91015625 266.64453125 C446.9207457 267.95973 446.9207457 267.95973 446.93154907 269.30149841 C447.16174743 306.31988831 447.16174743 306.31988831 443.70703125 324.203125 C443.50303711 325.26273437 443.29904297 326.32234375 443.08886719 327.4140625 C427.87990258 404.10089424 391.21145828 471.52355171 338.25827026 528.53077698 C336.72016486 530.18896601 335.18658912 531.85125519 333.65332031 533.51391602 C325.56482043 542.25905197 317.28200762 550.78526898 308.84570312 559.19482422 C306.80870704 561.226387 304.77721174 563.26334336 302.74609375 565.30078125 C301.42349808 566.62271707 300.10059276 567.94434317 298.77734375 569.265625 C298.18446564 569.86052734 297.59158752 570.45542969 296.98074341 571.06835938 C293.28033902 574.74847284 289.45614744 578.23719498 285.50334167 581.64492798 C282.90876039 583.89557952 280.40785743 586.23704075 277.89453125 588.578125 C273.30278444 592.81498917 268.59749011 596.85718383 263.7265625 600.7734375 C261.50035965 602.56476761 259.29215009 604.37050803 257.09375 606.1953125 C248.01785653 613.70187077 238.68549874 620.74046173 229.06640625 627.53515625 C226.67015224 629.22919675 224.28224054 630.9345682 221.89453125 632.640625 C150.74331704 683.23232418 69.4229203 720.33504652 -126.22900391 770.67584229 C-129.4518692 771.23047044 -132.6733288 771.79273077 -135.89453125 772.35693359 C-231.40247551 789.08157131 -328.98664384 794.16838596 -495.765625 717.98925781 C-501.08833769 714.22757253 -506.25061263 710.33620379 -511.29296875 706.203125 C-511.80794922 705.78289063 -512.32292969 705.36265625 -512.85351562 704.9296875 C-524.35473254 695.50566007 -535.81384277 685.69683032 -545.29296875 674.203125 C-546.48212891 672.84574219 -546.48212891 672.84574219 -547.6953125 671.4609375 C-564.41451997 652.32265056 -578.4668489 630.67007106 -590.29296875 608.203125 C-590.65986816 607.50880371 -591.02676758 606.81448242 -591.40478516 606.09912109 C-601.78589367 586.14237368 -608.9018321 564.44100225 -612.29296875 542.203125 C-612.48246094 541.01203125 -612.67195313 539.8209375 -612.8671875 538.59375 C-619.85990074 479.24327882 -592.123241 425.68955935 -556.6484375 380.17578125 C-546.77792493 367.71896523 -536.51107085 355.58822012 -525.7421875 343.8984375 C-524.44178119 342.46736836 -523.1463135 341.03103894 -521.89208984 339.55932617 C-516.64076972 333.41028266 -510.97546591 327.69950444 -505.26074219 321.9855957 C-503.55502277 320.27769444 -501.85747848 318.56194455 -500.16015625 316.84570312 C-494.30144386 310.95708196 -488.35242182 305.42345375 -481.8371582 300.25097656 C-479.37786611 298.27146 -477.0331945 296.21052602 -474.6953125 294.08984375 C-470.27594904 290.12173604 -465.62926008 286.54461696 -460.85546875 283.015625 C-459.98857422 282.37125488 -459.12167969 281.72688477 -458.22851562 281.06298828 C-455.58733239 279.10422293 -452.94071045 277.1530123 -450.29296875 275.203125 C-449.12870361 274.34098389 -449.12870361 274.34098389 -447.94091797 273.46142578 C-391.43379895 231.67392594 -327.27533456 203.41581062 -261.29296875 180.203125 C-260.65224426 179.97709595 -260.01151978 179.75106689 -259.35137939 179.51818848 C-215.59437289 164.1106198 -170.9458172 153.3134288 -125.03051758 146.78320312 C-112.86240154 145.05145259 -100.75473976 143.12235687 -88.65435791 140.96859741 C-74.69716119 138.48821295 -60.76258947 136.36316432 -46.66796875 134.828125 C-45.93937653 134.74849518 -45.2107843 134.66886536 -44.46011353 134.58682251 C4.81535989 129.27943181 52.62327122 131.66256397 99.70703125 148.203125 C100.55894043 148.49912598 101.41084961 148.79512695 102.28857422 149.10009766 C138.152893 161.70880688 172.32207193 180.9070305 200.21875 206.90625 C202.37266351 208.89447785 204.57576365 210.77152758 206.83203125 212.640625 C211.77377554 216.94700216 215.7074412 222.03464067 219.70703125 227.203125 C220.37734375 228.04617187 221.04765625 228.88921875 221.73828125 229.7578125 C242.97347368 257.48153595 252.27139116 295.9032925 248.34082031 330.41894531 C245.00709596 352.67380786 237.41374077 373.98118168 227.70703125 394.203125 C227.33884277 394.98574707 226.9706543 395.76836914 226.59130859 396.57470703 C217.7876257 415.22897713 207.06641135 432.69698071 194.70703125 449.203125 C194.3095166 449.73808594 193.91200195 450.27304687 193.50244141 450.82421875 C178.62942998 470.79056327 161.71397149 490.0921634 142.70703125 506.203125 C141.77503906 507.01265625 140.84304688 507.8221875 139.8828125 508.65625 C114.30606432 530.76537362 85.80366824 547.99824668 55.70703125 563.203125 C54.89508301 563.61449707 54.08313477 564.02586914 53.24658203 564.44970703 C-24.9643768 603.72825601 -119.09445087 617.90613609 -221.29296875 625.203125 C-222.48116211 625.27370117 -223.66935547 625.34427734 -224.89355469 625.41699219 C-361.23929786 633.04783183 -361.23929786 633.04783183 -401.85546875 596.828125 C-411.53922466 587.68199995 -418.69566327 575.25393829 -419.49609375 561.78515625 C-419.70807618 544.7382356 -414.1354058 532.29852555 -402.2109375 520.0546875 C-372.56905972 490.63908359 -321.58901513 472.5511135 -280.29296875 471.890625 C-279.58624023 471.87281982 -278.87951172 471.85501465 -278.15136719 471.83666992 C-273.48565748 471.8439079 -270.13859002 472.51236256 -266.29296875 475.203125 C-265.140625 477.6171875 -265.140625 477.6171875 -265.29296875 480.203125 C-267.1015625 482.4140625 -267.1015625 482.4140625 -269.73046875 484.578125 C-270.64828125 485.35542969 -271.56609375 486.13273437 -272.51171875 486.93359375 C-273.42953125 487.68253906 -274.34734375 488.43148438 -275.29296875 489.203125 C-282.21411704 494.62513353 -282.21411704 494.62513353 -286.29296875 502.203125 C-286.29296875 508.60523147 -284.61052417 513.40914968 -280.29296875 518.203125 C-265.42732165 530.06885773 -243.93699823 529.51424425 -225.93896484 527.90283203 C-199.99650149 524.96460757 -166.97109967 519.6163481 -148.453125 499.171875 C-145.52050738 495.07758336 -144.5424872 491.32265563 -144.88671875 486.296875 C-146.0521172 480.29059069 -150.56773149 476.59119086 -155.28979492 473.140625 C-158.68857898 470.94789674 -162.20098972 469.17354491 -165.859375 467.46875 C-166.96542084 466.95125687 -166.96542084 466.95125687 -168.09381104 466.42330933 C-176.21758609 462.68602486 -184.54290417 459.50262083 -192.9005127 456.33303833 C-252.82545448 433.54387115 -252.82545448 433.54387115 -263.29296875 412.203125 C-266.89012756 403.0455693 -266.47415182 392.88693808 -262.671875 383.8515625 C-252.43451632 364.18887358 -232.81267548 352.24534466 -213.32470703 343.15771484 C-211.36203836 342.23557659 -209.41974118 341.27878503 -207.4765625 340.31640625 C-164.55450995 319.6210908 -113.45124149 310.44014223 -66.29296875 306.203125 C-65.57818359 306.13399902 -64.86339844 306.06487305 -64.12695312 305.99365234 C-33.9459197 303.11962931 4.03256233 302.78033581 29.28515625 322.01171875 C34.38140376 326.62300077 38.28516132 332.19269064 39.015625 339.13671875 C39.44922925 350.92287064 36.07579441 358.61293441 28.39453125 367.453125 C26.85251456 369.05641388 25.29057431 370.64083755 23.70703125 372.203125 C22.70929688 373.21632813 22.70929688 373.21632813 21.69140625 374.25 C4.36237077 390.7853392 -22.04129063 404.7337357 -45.9296875 404.4296875 C-52.08452389 404.21694102 -59.77611778 403.71997597 -64.29296875 399.203125 C-64.15501168 394.2366704 -61.44207212 391.74586629 -58.29296875 388.203125 C-56.55512509 384.72743769 -56.84433681 381.00330143 -57.29296875 377.203125 C-59.57628173 372.73577352 -63.04645179 370.79417946 -67.58203125 368.99609375 C-88.57015041 362.85691768 -114.52365844 370.80370395 -133.33984375 380.45703125 C-138.83220604 383.70449943 -142.97241861 387.11012972 -145.29296875 393.203125 C-146.08908628 399.47255056 -145.03785267 404.05929019 -141.29296875 409.203125 C-127.4778368 423.67265794 -101.84732243 429.26506924 -83.55859375 435.5703125 C-46.8917064 448.21998945 -46.8917064 448.21998945 -33.29296875 455.203125 C-32.3186792 455.69256592 -32.3186792 455.69256592 -31.32470703 456.19189453 C-20.43169367 461.73327851 -8.11400661 469.41625685 -3.29296875 481.203125 C-1.70614271 486.13828733 -0.46910577 491.15690583 0.70703125 496.203125 C12.66919737 487.54309681 24.36268446 478.65876841 35.70703125 469.203125 C36.28678711 468.72246582 36.86654297 468.24180664 37.46386719 467.74658203 C44.89706786 461.57638652 52.09906196 455.1961951 59.17138672 448.61669922 C60.75308152 447.16073532 62.35420587 445.72904016 63.9609375 444.30078125 C85.05682802 425.44535532 105.96451769 397.25141275 107.84765625 368.02026367 C108.82598003 343.63309755 102.14931664 323.92768391 87.70703125 304.203125 C87.14371094 303.43226563 86.58039062 302.66140625 86 301.8671875 C63.14300856 273.51294496 22.10813477 264.77683118 -12.08300781 261.09179688 C-15.15179493 260.78040389 -18.22138025 260.48543042 -21.29296875 260.203125 C-22.06721191 260.13109863 -22.84145508 260.05907227 -23.63916016 259.98486328 C-28.18873056 259.58214245 -32.7285135 259.35152601 -37.29296875 259.203125 C-38.38520752 259.16227783 -38.38520752 259.16227783 -39.49951172 259.12060547 C-116.48189495 256.57956355 -196.88892037 277.26959102 -388.29296875 366.203125 C-388.93331055 366.67218262 -389.57365234 367.14124023 -390.23339844 367.62451172 C-398.49712509 373.68151581 -406.51600494 379.92748239 -414.2734375 386.62109375 C-417.10916133 389.04594944 -419.99952687 391.3791041 -422.91796875 393.703125 C-455.96847061 420.70077332 -478.14073558 461.50620708 -483.015625 503.89453125 C-485.29354632 533.53661918 -482.30194482 563.47971688 -462.3359375 586.8828125 C-461.66175781 587.64851562 -460.98757813 588.41421875 -460.29296875 589.203125 C-459.62910156 590.01007812 -458.96523438 590.81703125 -458.28125 591.6484375 C-452.10046695 598.9374201 -444.97613774 604.6005598 -437.29296875 610.203125 C-436.71836914 610.6259375 -436.14376953 611.04875 -435.55175781 611.484375 C-384.44215586 648.63388692 -315.03520819 661.6586238 -253.29296875 665.203125 C-251.63407839 665.31456677 -249.97522239 665.42652138 -248.31640625 665.5390625 C-195.12017106 668.83178525 -141.43677333 665.11114628 -89.29296875 654.203125 C-88.16101074 653.96867676 -87.02905273 653.73422852 -85.86279297 653.49267578 C2.57934536 634.90710408 90.55217465 596.62108975 177.70703125 530.203125 C178.773086 529.31077782 179.8395124 528.41887452 180.90625 527.52734375 C186.84956506 522.54528175 192.69524451 517.47618187 198.43359375 512.2578125 C200.56248434 510.33376362 202.72122267 508.45166688 204.89453125 506.578125 C208.05255833 503.83146417 210.9981225 500.93396407 213.9296875 497.94921875 C215.77296699 496.13834857 217.68525924 494.44991146 219.64453125 492.765625 C225.90587094 487.35041229 231.53494904 481.47609339 236.92578125 475.203125 C238.78128335 473.11975422 240.71926226 471.16031293 242.70703125 469.203125 C246.5871943 465.36747625 250.16924818 461.35402984 253.70703125 457.203125 C254.51914063 456.26855469 255.33125 455.33398438 256.16796875 454.37109375 C293.98827886 410.60966212 324.17458229 357.17710169 320.46875 297.81640625 C318.89599142 278.34299679 313.18222392 259.1802266 305.70703125 241.203125 C305.26302979 240.12756348 305.26302979 240.12756348 304.81005859 239.03027344 C297.41186261 221.45206386 286.60092343 206.17500817 273.70703125 192.203125 C272.96066406 191.38585937 272.21429687 190.56859375 271.4453125 189.7265625 C265.66426289 183.67836642 259.16744135 178.58506321 252.50244141 173.55859375 C251.35160526 172.68975471 250.20501895 171.81524031 249.06396484 170.93359375 C205.45733124 137.29762292 148.96344088 125.73396834 95.70703125 118.203125 C94.55912109 118.03828613 93.41121094 117.87344727 92.22851562 117.70361328 C9.90744582 106.17503246 -75.2208693 112.9745285 -156.29296875 130.203125 C-157.06874268 130.36621155 -157.8445166 130.5292981 -158.64379883 130.69732666 C-242.58603537 148.35029675 -326.55279707 174.04443775 -473.29296875 252.203125 C-474.07865234 252.76354492 -474.86433594 253.32396484 -475.67382812 253.90136719 C-487.27109607 262.2125863 -498.39919274 270.99300626 -509.29296875 280.203125 C-509.9154248 280.72648437 -510.53788086 281.24984375 -511.17919922 281.7890625 C-519.17939474 288.52247139 -526.95169992 295.46709913 -534.58496094 302.61279297 C-536.38676739 304.29046124 -538.20195637 305.95271709 -540.01953125 307.61328125 C-547.68359305 314.64266446 -554.93266431 321.89155186 -561.87548828 329.6328125 C-563.2910594 331.20100978 -564.7238839 332.75126964 -566.1640625 334.296875 C-571.31130508 339.82812104 -576.24786327 345.4796221 -580.98828125 351.3671875 C-583.05173006 353.90627875 -585.15292966 356.40322222 -587.27856445 358.88989258 C-591.64897917 364.00368481 -595.93238364 369.17675266 -600.10546875 374.453125 C-600.53714355 374.99493408 -600.96881836 375.53674316 -601.41357422 376.0949707 C-641.00714908 426.56198228 -661.65507783 505.79433597 -654.04296875 569.140625 C-651.63202054 586.66609326 -644.86761219 601.34638766 -637.29296875 617.203125 C-636.87740723 618.07952637 -636.4618457 618.95592773 -636.03369141 619.85888672 C-629.24381162 634.1045393 -621.39205135 647.66799246 -613.29296875 661.203125 C-612.53185791 662.48509766 -612.53185791 662.48509766 -611.75537109 663.79296875 C-601.70471633 680.70756782 -591.71907712 695.71729381 -576.0390625 707.97265625 C-568.38861498 714.18660438 -561.24409567 720.91405889 -554.859375 728.421875 C-511.55559769 777.66507314 -409.35080232 804.62640955 -346.29296875 813.203125 C-345.6708551 813.29123444 -345.04874146 813.37934387 -344.40777588 813.47012329 C-335.20592595 814.59110419 -325.9221764 814.38750368 -316.66796875 814.40625 C-315.23786469 814.41049107 -315.23786469 814.41049107 -313.77886963 814.41481781 C-308.69893119 814.42978705 -303.61902079 814.4390217 -298.5390625 814.44335938 C-294.43219811 814.44768071 -290.32555135 814.46132358 -286.21875 814.484375 C-258.10232714 814.63890401 -230.30093159 813.70609285 -202.29296875 811.203125 C-201.12235901 811.10070496 -199.95174927 810.99828491 -198.7456665 810.89276123 C-192.68793462 810.35307912 -186.64526895 809.7275144 -180.60546875 809.015625 C-179.28983948 808.86314301 -179.28983948 808.86314301 -177.94763184 808.70758057 C-81.69168457 797.43464824 12.9708614 768.97874443 173.79101562 704.59130859 C176.72984217 703.19226575 179.67812402 701.81502946 182.62890625 700.44140625 C204.80728966 690.06314313 225.80551102 677.93971159 246.62597656 665.09912109 C249.23692036 663.49241828 251.85548994 661.90000944 254.48046875 660.31640625 C280.61918887 644.44835181 302.63808493 623.46841846 324.12597656 601.91455078 C326.22996862 599.80512843 328.3393516 597.70120061 330.44921875 595.59765625 C331.81672747 594.22948765 333.18392645 592.86100939 334.55078125 591.4921875 C335.16755737 590.87743561 335.7843335 590.26268372 336.4197998 589.62930298 C340.1368612 585.89244036 343.66790335 582.03922318 347.10693359 578.04476929 C349.72981419 575.02594537 352.47201667 572.12003393 355.20703125 569.203125 C359.79904351 564.27796293 364.32801261 559.31966257 368.70703125 554.203125 C369.60663475 553.15743499 370.50638858 552.11187431 371.40625 551.06640625 C374.00343153 548.04624064 376.59179713 545.01863575 379.17822266 541.98925781 C380.60331079 540.32430336 382.03506603 538.66536418 383.46875 537.0078125 C390.32299575 529.04615036 396.71466917 520.77407015 403.04541016 512.39257812 C404.68535108 510.23169212 406.33972091 508.0827878 408 505.9375 C452.54691992 448.3221548 484.48814357 386.04395304 508.98535156 317.63330078 C524.38280698 274.6432713 542.32123426 232.54818163 560.36022949 190.61022949 C560.91869436 189.3112774 561.47577372 188.01172862 562.03137207 186.71154785 C562.78288948 184.95531072 563.54162276 183.20216646 564.30078125 181.44921875 C564.72037109 180.47654053 565.13996094 179.5038623 565.57226562 178.50170898 C566.70703125 176.203125 566.70703125 176.203125 568.70703125 174.203125 C571.33203125 174.578125 571.33203125 174.578125 573.70703125 175.203125 C573.98212956 181.84464425 572.95442904 187.73345348 571.51171875 194.203125 C571.04847935 196.35011504 570.58593336 198.49725479 570.12402344 200.64453125 C569.76866516 202.28059326 569.76866516 202.28059326 569.40612793 203.94970703 C568.31991864 209.00464851 567.29823112 214.07216 566.27734375 219.140625 C565.87377316 221.13294211 565.46996281 223.12521066 565.06591797 225.11743164 C564.86415955 226.11292023 564.66240112 227.10840881 564.45452881 228.13406372 C560.38491571 248.19822593 556.18263718 268.22548339 551.70703125 288.203125 C557.17151074 277.57132804 562.25958789 266.78166704 567.27172852 255.93017578 C572.07405202 245.53858499 576.94289475 235.17913028 581.83203125 224.828125 C582.38925369 223.64724304 582.38925369 223.64724304 582.95773315 222.44250488 C584.0217794 220.18784208 585.08685499 217.93366891 586.15234375 215.6796875 C586.46745407 215.0120639 586.78256439 214.34444031 587.10722351 213.65658569 C587.96878335 211.83637003 588.83771452 210.01964884 589.70703125 208.203125 C590.23280762 207.07825684 590.75858398 205.95338867 591.30029297 204.79443359 C592.70703125 202.203125 592.70703125 202.203125 594.76953125 201.265625 C596.70703125 201.203125 596.70703125 201.203125 598.70703125 202.203125 C598.04740301 211.85768385 595.95677541 221.13412533 593.91796875 230.5703125 C593.53226468 232.37217087 593.14690585 234.17410317 592.76187134 235.97610474 C591.95331677 239.75420142 591.14091147 243.53144328 590.32568359 247.30810547 C589.30023091 252.05988494 588.28381918 256.81354161 587.27008533 261.56783295 C575.68081109 315.87608597 575.68081109 315.87608597 568.26953125 338.953125 C567.91955078 340.066875 567.56957031 341.180625 567.20898438 342.328125 C566.38225828 344.95552848 565.54861998 347.58045367 564.70703125 350.203125 C588.33342062 309.85761975 601.38846157 266.81145252 612.921875 221.75 C613.18767868 220.71496841 613.45348236 219.67993683 613.7273407 218.61354065 C615.01211176 213.60301455 616.28173855 208.58955223 617.52319336 203.56811523 C620.04012328 193.54441599 622.83307825 184.37994802 627.70703125 175.203125 C628.36703125 175.203125 629.02703125 175.203125 629.70703125 175.203125 C631.25939261 182.92335069 631.90058713 190.34486894 631.89453125 198.203125 C631.89517578 199.01563721 631.89582031 199.82814941 631.89648438 200.6652832 C631.84221777 206.60192621 631.84221777 206.60192621 631.16162109 209.62866211 C630.65449257 212.50066549 630.86063365 214.69724672 631.265625 217.58203125 C636.36927603 258.60639651 635.40031118 301.16442527 630.70703125 342.203125 C630.62453125 342.94643066 630.54203125 343.68973633 630.45703125 344.45556641 C626.46787409 380.38099519 619.37156019 415.66125832 608.70703125 450.203125 C608.13130371 452.07073486 608.13130371 452.07073486 607.54394531 453.97607422 C581.70690889 536.68255758 536.77353587 611.61953323 480.78344727 677.375 C477.948258 680.71040083 475.18696148 684.09294932 472.45703125 687.515625 C467.9633084 693.04760872 463.10843848 698.21007339 458.19824219 703.37036133 C454.46911683 707.2926621 450.84820802 711.28080507 447.32080078 715.38598633 C445.68060346 717.23288325 443.96999996 718.97367478 442.20703125 720.703125 C439.81425634 723.05345601 437.57512013 725.467349 435.39453125 728.015625 C429.37998451 734.97415889 422.81072118 741.3907818 415.82421875 747.3671875 C413.3010367 749.5551867 410.85148606 751.81605613 408.39453125 754.078125 C399.22928559 762.42504515 389.46183147 770.02724869 379.69482422 777.64941406 C377.56152882 779.3168535 375.43309413 780.99038826 373.3046875 782.6640625 C364.8793982 789.27377397 356.3807287 795.70697825 347.61582947 801.85926819 C345.71806956 803.19535366 343.82573375 804.53877573 341.93481445 805.88452148 C331.72209369 813.14337791 321.39003555 820.20267435 310.95703125 827.140625 C310.17299927 827.6625946 309.38896729 828.18456421 308.58117676 828.72235107 C288.69807799 841.9486445 268.39134467 854.26893242 247.70703125 866.203125 C253.9336698 865.10280412 259.72681134 862.81162507 265.64453125 860.640625 C266.29240601 860.40347778 266.94028076 860.16633057 267.60778809 859.92199707 C293.25741687 850.49109584 318.29483174 839.40870073 343.23144531 828.25097656 C349.79746454 825.31876679 356.38607832 822.46558438 363.0546875 819.7734375 C363.69345322 819.51368134 364.33221893 819.25392517 364.99034119 818.98629761 C369.46408544 817.203125 369.46408544 817.203125 371.70703125 817.203125 C369.68362186 825.54968872 359.59628072 830.8933136 353.01953125 835.640625 C346.00252891 840.75026089 339.08247197 845.96736001 332.20703125 851.265625 C323.94525203 857.61196165 315.4844916 863.57820987 306.84375 869.39453125 C303.62783217 871.56170215 300.49454766 873.80945209 297.39453125 876.140625 C272.01479461 894.7291477 243.50200207 909.59669904 215.70703125 924.203125 C214.78293457 924.69119629 213.85883789 925.17926758 212.90673828 925.68212891 C134.74142358 966.72564409 44.06537674 988.32255385 -328.29296875 983.203125 C-328.94702698 983.04777283 -329.60108521 982.89242065 -330.27496338 982.73236084 C-363.7741632 974.74621298 -396.72718349 964.35976385 -429.29296875 953.203125 C-431.99030248 952.28290786 -434.68831043 951.3648988 -437.38842773 950.45288086 C-438.92984384 949.93218928 -440.46986341 949.40733396 -442.00805664 948.87719727 C-444.90470361 947.89705974 -447.21082599 947.203125 -450.29296875 947.203125 C-378.57602661 1016.55103902 -278.98022627 1043.85401283 -131.51416016 1056.86230469 C-127.42874024 1057.020156 -123.38960438 1057.27429137 -119.32421875 1057.71484375 C-95.70569626 1060.1892962 -71.39226171 1057.19825954 -48.21362305 1052.61865234 C-40.79949425 1051.18847374 -33.40162389 1050.42691734 -25.87329102 1049.88647461 C-21.53719786 1049.56327985 -17.38366042 1049.07023423 -13.12890625 1048.15625 C-8.85773939 1047.24686695 -5.03331484 1046.99252998 -0.66796875 1047.078125 C0.54117188 1047.09617187 1.7503125 1047.11421875 2.99609375 1047.1328125 C3.89070312 1047.15601563 4.7853125 1047.17921875 5.70703125 1047.203125 C5.59008789 1049.05029297 5.59008789 1049.05029297 4.70703125 1051.203125 C2.10717773 1052.50830078 2.10717773 1052.50830078 -1.421875 1053.6484375 C-2.06562073 1053.85977325 -2.70936646 1054.07110901 -3.37261963 1054.28884888 C-5.52783783 1054.98819285 -7.69049737 1055.65962734 -9.85546875 1056.328125 C-10.6058139 1056.56478882 -11.35615906 1056.80145264 -12.12924194 1057.04528809 C-62.87623337 1073.03180826 -115.01127039 1081.26515216 -167.73046875 1087.453125 C-168.99906738 1087.60418701 -170.26766602 1087.75524902 -171.57470703 1087.91088867 C-194.68567457 1090.51649375 -217.79199636 1091.61567184 -241.04296875 1091.578125 C-242.33223267 1091.57758118 -243.62149658 1091.57703735 -244.9498291 1091.57647705 C-270.234508 1091.52801817 -295.17253943 1089.99244586 -320.29296875 1087.203125 C-321.30786377 1087.09186279 -322.32275879 1086.98060059 -323.3684082 1086.8659668 C-349.19856605 1084.02281579 -374.8836557 1080.72453224 -400.29296875 1075.203125 C-401.36049377 1074.97299713 -401.36049377 1074.97299713 -402.44958496 1074.73822021 C-479.15097197 1058.15305997 -549.82796532 1027.89118791 -617.62792969 988.74169922 C-619.4048888 987.71582927 -621.18419566 986.69401529 -622.96582031 985.67626953 C-643.505419 973.93133313 -663.94602044 961.19691634 -682.29296875 946.203125 C-683.21207031 945.47351563 -684.13117188 944.74390625 -685.078125 943.9921875 C-691.06695003 939.19101975 -696.75391762 934.12198556 -702.375 928.90234375 C-705.07109289 926.4083676 -707.79919559 923.95686881 -710.54296875 921.515625 C-716.80526554 915.88456773 -722.72405286 910.02736918 -728.203125 903.62890625 C-729.83780232 901.73145837 -731.49179658 899.86000167 -733.1640625 897.99609375 C-746.31760687 883.2363942 -757.3748436 867.28574771 -767.29296875 850.203125 C-767.96126709 849.06399658 -767.96126709 849.06399658 -768.64306641 847.90185547 C-792.50349592 806.97250408 -804.10108662 763.64990818 -811.92193604 717.38751221 C-812.46721541 714.17727969 -813.02713589 710.96962108 -813.5859375 707.76171875 C-813.94765141 705.65903226 -814.30842081 703.55618294 -814.66796875 701.453125 C-814.82354248 700.55118408 -814.97911621 699.64924316 -815.1394043 698.7199707 C-830.82250242 604.55861368 -779.55443291 491.09795999 -724.29296875 404.203125 C-727.14548205 407.0216798 -729.92987855 409.84861848 -732.54296875 412.890625 C-735.15978037 415.91913327 -737.83388717 418.88199878 -740.54296875 421.828125 C-745.64606881 427.4857215 -750.30705502 433.44892671 -754.95507812 439.47998047 C-756.17183974 441.04711613 -757.41091831 442.59686013 -758.65234375 444.14453125 C-772.34913943 461.40341306 -783.87495148 480.39344392 -795.29296875 499.203125 C-795.70063477 499.87069824 -796.10830078 500.53827148 -796.52832031 501.22607422 C-807.87224861 519.80598061 -818.46494112 538.77855775 -828.29296875 558.203125 C-828.72851074 559.0580957 -829.16405273 559.91306641 -829.61279297 560.79394531 C-851.62184263 604.30433877 -867.53605325 655.65532604 -867.42578125 704.8125 C-867.42673798 705.78237854 -867.4276947 706.75225708 -867.42868042 707.75152588 C-867.42935575 709.78845281 -867.42754702 711.82538198 -867.42333984 713.86230469 C-867.418006 716.93169145 -867.423295 720.00093034 -867.4296875 723.0703125 C-867.43188317 732.93844214 -867.28576933 742.71138185 -866.40966797 752.54394531 C-866.29296875 755.203125 -866.29296875 755.203125 -867.29296875 757.203125 C-869.5703125 757.5078125 -869.5703125 757.5078125 -872.29296875 757.203125 C-874.171875 755.1484375 -874.171875 755.1484375 -875.85546875 752.328125 C-876.41363281 751.42320312 -876.97179687 750.51828125 -877.546875 749.5859375 C-881.75154054 741.43998593 -884.18213849 733.3724046 -885.91796875 724.390625 C-886.12164063 723.41931641 -886.3253125 722.44800781 -886.53515625 721.44726562 C-890.03010809 703.80447991 -890.70543235 685.89005456 -890.66796875 667.953125 C-890.66742493 666.95999298 -890.6668811 665.96686096 -890.6663208 664.94363403 C-890.43484321 572.20352636 -851.29559175 481.03164281 -800.87988281 404.61132812 C-799.73767136 402.87797831 -798.59948208 401.14197561 -797.46386719 399.40429688 C-789.34055627 386.97850489 -781.00903041 374.8699985 -771.83984375 363.19433594 C-769.18690218 359.77934361 -766.62151815 356.29939108 -764.04296875 352.828125 C-759.29666968 346.47236489 -754.3953639 340.27865736 -749.29296875 334.203125 C-748.86661133 333.69185059 -748.44025391 333.18057617 -748.00097656 332.65380859 C-742.33511853 325.86008177 -736.55232853 319.20995978 -730.56640625 312.6953125 C-728.56212032 310.49817432 -726.60683459 308.27032419 -724.66796875 306.015625 C-721.68584222 302.57847916 -718.50297679 299.39451753 -715.26171875 296.203125 C-713.3531042 294.26421498 -711.56586323 292.26612949 -709.79296875 290.203125 C-704.61140781 284.21632148 -699.16979878 278.83856736 -692.98046875 273.890625 C-688.99586731 270.69744785 -685.36255256 267.3541829 -681.79296875 263.703125 C-677.49548303 259.32054056 -673.03210405 255.39992908 -668.234375 251.578125 C-664.89438577 248.88129438 -661.65898161 246.0796621 -658.41796875 243.265625 C-652.45403245 238.11859966 -646.32951666 233.24314934 -640.03076172 228.51123047 C-638.17619372 227.11522382 -636.33012851 225.70841776 -634.484375 224.30078125 C-625.28126775 217.30728047 -615.90457702 210.6231586 -606.29296875 204.203125 C-605.53532227 203.69668457 -604.77767578 203.19024414 -603.99707031 202.66845703 C-584.06161362 189.40129218 -563.42081414 177.4600295 -542.29296875 166.203125 C-541.32020996 165.68250488 -540.34745117 165.16188477 -539.34521484 164.62548828 C-498.53035115 142.84387435 -448.39492452 116.29845974 -401.08056641 114.1003418 C-394.57158568 113.68112173 -389.92535246 111.30206018 -384.29296875 108.140625 C-382.24574254 107.03617822 -380.19611799 105.93616929 -378.14453125 104.83984375 C-376.49179199 103.95498291 -376.49179199 103.95498291 -374.80566406 103.05224609 C-301.51263289 64.46999574 -221.12220908 35.83002495 -30.29296875 1.203125 C-29.37913925 1.11650604 -28.46530975 1.02988708 -27.52378845 0.94064331 C-18.3461121 0.14332232 -9.2036739 0.02388215 0 0 Z M85.70703125 47.203125 C86.03703125 48.853125 86.36703125 50.503125 86.70703125 52.203125 C87.69703125 52.203125 88.68703125 52.203125 89.70703125 52.203125 C90.03703125 50.553125 90.36703125 48.903125 90.70703125 47.203125 C89.05703125 47.203125 87.40703125 47.203125 85.70703125 47.203125 Z M228.70703125 53.203125 C232.52101652 56.38653137 236.86817503 58.40622682 241.26953125 60.640625 C263.46710385 72.15710756 284.01962236 86.59448529 302.70703125 103.203125 C303.44026611 103.85023437 304.17350098 104.49734375 304.92895508 105.1640625 C311.23872454 110.77879802 317.2956546 116.60863768 323.26953125 122.578125 C324.15060547 123.44695312 325.03167969 124.31578125 325.93945312 125.2109375 C331.96873423 131.22686965 337.39202044 137.55448069 342.70703125 144.203125 C344.2665331 146.0182053 345.82836937 147.83128826 347.39453125 149.640625 C374.1585574 181.83203107 394.33184996 220.93832043 405.70703125 261.203125 C406.03703125 261.203125 406.36703125 261.203125 406.70703125 261.203125 C406.20844899 253.36248579 404.96065265 245.95109692 403.08203125 238.328125 C402.6811731 236.69520508 402.6811731 236.69520508 402.2722168 235.02929688 C388.7647226 181.3281029 358.72508164 130.37036006 313.40332031 97.44189453 C311.59820617 96.12365199 309.8201958 94.77353631 308.04296875 93.41796875 C299.61463833 87.03781797 290.94058405 81.34630403 281.70703125 76.203125 C280.89298828 75.74824707 280.07894531 75.29336914 279.24023438 74.82470703 C255.12481252 60.30722176 255.12481252 60.30722176 228.70703125 53.203125 Z M-127.29296875 69.203125 C-127.29296875 69.533125 -127.29296875 69.863125 -127.29296875 70.203125 C-117.4004643 69.58692897 -107.62315254 68.41976071 -97.79632568 67.16201782 C-62.33059369 62.65663532 -27.01573856 60.49542758 8.70703125 59.203125 C8.37703125 58.543125 8.04703125 57.883125 7.70703125 57.203125 C-37.439179 56.34180898 -82.8920551 61.2359636 -127.29296875 69.203125 Z M107.70703125 57.203125 C107.04703125 57.863125 106.38703125 58.523125 105.70703125 59.203125 C105.87210771 61.77852713 105.87210771 61.77852713 106.70703125 64.203125 C107.36703125 64.533125 108.02703125 64.863125 108.70703125 65.203125 C110.35703125 63.553125 112.00703125 61.903125 113.70703125 60.203125 C113.04703125 59.213125 112.38703125 58.223125 111.70703125 57.203125 C110.38703125 57.203125 109.06703125 57.203125 107.70703125 57.203125 Z M-133.29296875 70.203125 C-133.29296875 70.533125 -133.29296875 70.863125 -133.29296875 71.203125 C-131.64296875 71.203125 -129.99296875 71.203125 -128.29296875 71.203125 C-128.29296875 70.873125 -128.29296875 70.543125 -128.29296875 70.203125 C-129.94296875 70.203125 -131.59296875 70.203125 -133.29296875 70.203125 Z M-138.29296875 71.203125 C-134.29296875 72.203125 -134.29296875 72.203125 -134.29296875 72.203125 Z M-457.5234375 145.85546875 C-458.32587891 146.21962891 -459.12832031 146.58378906 -459.95507812 146.95898438 C-460.78845703 147.34892578 -461.62183594 147.73886719 -462.48046875 148.140625 C-463.32544922 148.52669922 -464.17042969 148.91277344 -465.04101562 149.31054688 C-467.1291461 150.26613201 -469.21270479 151.23056283 -471.29296875 152.203125 C-471.29296875 153.193125 -471.29296875 154.183125 -471.29296875 155.203125 C-465.91402592 154.92728178 -462.74487275 152.70205404 -458.484375 149.703125 C-455.84833596 147.89877742 -453.18820349 146.53938719 -450.29296875 145.203125 C-453.80865549 144.03122942 -454.29215395 144.36586995 -457.5234375 145.85546875 Z M284.70703125 152.203125 C283.69592032 155.25225728 283.69592032 155.25225728 284.70703125 158.203125 C286.02703125 157.873125 287.34703125 157.543125 288.70703125 157.203125 C288.37703125 155.553125 288.04703125 153.903125 287.70703125 152.203125 C286.71703125 152.203125 285.72703125 152.203125 284.70703125 152.203125 Z M-57.29296875 183.203125 C-57.62296875 184.523125 -57.95296875 185.843125 -58.29296875 187.203125 C-56.97296875 187.203125 -55.65296875 187.203125 -54.29296875 187.203125 C-54.29296875 185.883125 -54.29296875 184.563125 -54.29296875 183.203125 C-55.28296875 183.203125 -56.27296875 183.203125 -57.29296875 183.203125 Z M12.70703125 185.203125 C16.70703125 186.203125 16.70703125 186.203125 16.70703125 186.203125 Z M16.70703125 186.203125 C19.58037106 188.11868487 21.56731296 188.86803993 24.84375 189.796875 C26.40416016 190.25102783 26.40416016 190.25102783 27.99609375 190.71435547 C29.11757813 191.04064941 30.2390625 191.36694336 31.39453125 191.703125 C68.79483606 202.94089734 97.59359951 220.53885604 124.70703125 248.203125 C125.20203125 247.213125 125.20203125 247.213125 125.70703125 246.203125 C103.33096259 214.58603058 70.38044798 194.5557824 32.28271484 187.79394531 C24.54349308 186.46135869 24.54349308 186.46135869 16.70703125 186.203125 Z M-494.29296875 195.203125 C-494.62296875 196.193125 -494.95296875 197.183125 -495.29296875 198.203125 C-493.92046912 200.87989047 -493.92046912 200.87989047 -492.29296875 203.203125 C-489.53655459 202.70556408 -489.53655459 202.70556408 -487.29296875 201.203125 C-487.12630208 198.703125 -487.12630208 198.703125 -487.29296875 196.203125 C-488.4183098 194.84694001 -488.4183098 194.84694001 -491.35546875 195.140625 C-492.32484375 195.16125 -493.29421875 195.181875 -494.29296875 195.203125 Z M-520.29296875 200.203125 C-520.29296875 201.523125 -520.29296875 202.843125 -520.29296875 204.203125 C-518.97296875 204.203125 -517.65296875 204.203125 -516.29296875 204.203125 C-515.96296875 203.543125 -515.63296875 202.883125 -515.29296875 202.203125 C-515.62296875 201.543125 -515.95296875 200.883125 -516.29296875 200.203125 C-517.61296875 200.203125 -518.93296875 200.203125 -520.29296875 200.203125 Z M-35.29296875 204.203125 C-35.0056682 206.54257236 -34.67360096 208.8770393 -34.29296875 211.203125 C-32.31296875 211.698125 -32.31296875 211.698125 -30.29296875 212.203125 C-28.57481437 209.95144654 -28.57481437 209.95144654 -27.29296875 207.203125 C-27.98437226 204.90024707 -27.98437226 204.90024707 -29.29296875 203.203125 C-32.58227279 202.83626803 -32.58227279 202.83626803 -35.29296875 204.203125 Z M-578.29296875 211.203125 C-611.89902915 233.9814789 -644.60280109 257.88045328 -674.40625 285.53515625 C-676.22311614 287.21434377 -678.05225165 288.88044633 -679.8984375 290.52734375 C-687.20567385 297.07538672 -694.1614867 303.96317852 -701.10546875 310.890625 C-701.85553696 311.63681091 -701.85553696 311.63681091 -702.62075806 312.39807129 C-707.860204 317.61613174 -713.01165427 322.86973405 -717.82397461 328.48901367 C-719.87879988 330.88670824 -722.02543114 333.19634608 -724.16796875 335.515625 C-728.20576197 339.94808974 -732.06604309 344.48054677 -735.828125 349.1484375 C-737.6338205 351.3862408 -739.45276187 353.60794399 -741.2890625 355.8203125 C-749.40733412 365.6395083 -756.9518245 375.79270039 -764.29296875 386.203125 C-764.70401855 386.78513672 -765.11506836 387.36714844 -765.53857422 387.96679688 C-767.46902275 390.70376251 -769.3890513 393.4476372 -771.29296875 396.203125 C-770.96296875 396.863125 -770.63296875 397.523125 -770.29296875 398.203125 C-766.79582007 394.47981428 -763.30394187 390.75158969 -759.8203125 387.015625 C-758.93460571 386.06623047 -758.93460571 386.06623047 -758.03100586 385.09765625 C-755.72425545 382.58320433 -753.48878058 380.01076374 -751.26171875 377.42578125 C-748.32720856 374.1128124 -745.31025697 370.87815324 -742.29296875 367.640625 C-741.71095703 367.01478516 -741.12894531 366.38894531 -740.52929688 365.74414062 C-737.66948004 362.6848765 -734.77710427 359.67662228 -731.79296875 356.73828125 C-729.42697865 354.39367944 -727.20268166 351.98320562 -725.03686523 349.453125 C-721.4755707 345.36088184 -717.73155475 341.49672612 -713.890625 337.66796875 C-713.20922958 336.98561661 -712.52783417 336.30326447 -711.82579041 335.60023499 C-710.39591134 334.16968063 -708.96478964 332.74036733 -707.5324707 331.31225586 C-705.36099164 329.14613426 -703.1949055 326.97472326 -701.02929688 324.80273438 C-699.62922673 323.40332513 -698.22884637 322.00422616 -696.828125 320.60546875 C-696.19141373 319.96673325 -695.55470245 319.32799774 -694.8986969 318.66990662 C-691.08037787 314.87108009 -687.14952416 311.25970811 -683.06187439 307.75184631 C-680.50926441 305.51697216 -678.16350025 303.13077774 -675.79296875 300.703125 C-672.140156 296.96229267 -668.36426123 293.49057208 -664.41210938 290.06835938 C-660.78367888 286.8746717 -657.29557526 283.53347217 -653.79296875 280.203125 C-648.98040898 275.6272485 -644.1235124 271.13494619 -639.10595703 266.78417969 C-636.6892789 264.67666452 -634.33570812 262.50388268 -631.98046875 260.328125 C-628.37905704 257.03880262 -624.719896 253.88294864 -620.91796875 250.828125 C-616.71480188 247.43924687 -612.73114303 243.89053024 -608.79296875 240.203125 C-604.10248494 235.81540807 -599.29183072 231.67174824 -594.28125 227.6484375 C-588.16467941 222.64324379 -582.24590833 217.40090086 -576.29296875 212.203125 C-577.28296875 211.708125 -577.28296875 211.708125 -578.29296875 211.203125 Z M-512.29296875 226.203125 C-513.07099062 228.5046661 -513.07099062 228.5046661 -513.29296875 231.203125 C-511.96143609 233.50816544 -511.96143609 233.50816544 -510.29296875 235.203125 C-508.24459993 234.63950198 -508.24459993 234.63950198 -506.29296875 233.203125 C-505.38830554 230.19345174 -505.38830554 230.19345174 -505.29296875 227.203125 C-506.4183098 225.84694001 -506.4183098 225.84694001 -509.35546875 226.140625 C-510.32484375 226.16125 -511.29421875 226.181875 -512.29296875 226.203125 Z M-286.29296875 235.203125 C-285.96296875 237.513125 -285.63296875 239.823125 -285.29296875 242.203125 C-283.40117672 242.8846073 -283.40117672 242.8846073 -281.29296875 243.203125 C-278.94323057 241.30557356 -278.94323057 241.30557356 -279.16796875 238.078125 C-279.20921875 237.129375 -279.25046875 236.180625 -279.29296875 235.203125 C-281.60296875 235.203125 -283.91296875 235.203125 -286.29296875 235.203125 Z M-326.29296875 237.203125 C-326.62671152 239.61896253 -326.62671152 239.61896253 -326.29296875 242.203125 C-324.8971109 244.01788503 -324.8971109 244.01788503 -323.29296875 245.203125 C-321.26055148 244.56332651 -321.26055148 244.56332651 -319.29296875 243.203125 C-318.30219577 240.75025904 -318.30219577 240.75025904 -318.29296875 238.203125 C-320.125622 235.93472517 -320.125622 235.93472517 -322.85546875 236.015625 C-325.23986598 235.93309177 -325.23986598 235.93309177 -326.29296875 237.203125 Z M125.70703125 248.203125 C126.03703125 249.193125 126.36703125 250.183125 126.70703125 251.203125 C126.70703125 250.213125 126.70703125 249.223125 126.70703125 248.203125 C126.37703125 248.203125 126.04703125 248.203125 125.70703125 248.203125 Z M158.70703125 254.203125 C159.31075351 257.97270789 160.46433274 261.3983735 161.77661133 264.97583008 C165.72144306 275.88480245 167.49432909 286.69936468 168.70703125 298.203125 C168.83851562 299.43289063 168.97 300.66265625 169.10546875 301.9296875 C169.38386482 305.02214116 169.56900076 308.10149866 169.70703125 311.203125 C169.80371094 312.68039062 169.80371094 312.68039062 169.90234375 314.1875 C170.24387084 323.52257372 168.7129719 332.43765436 167.20922852 341.62719727 C165.92863233 349.49486368 164.99700115 357.22895281 164.70703125 365.203125 C176.4860986 351.34138197 177.88044518 324.27621149 177.95703125 307.015625 C177.97765625 305.87287109 177.99828125 304.73011719 178.01953125 303.55273438 C178.07015466 292.35863291 176.271011 281.94304025 170.95703125 272.015625 C170.61212646 271.34853516 170.26722168 270.68144531 169.91186523 269.99414062 C166.97690885 264.43952602 163.72614326 259.04935861 159.70703125 254.203125 C159.37703125 254.203125 159.04703125 254.203125 158.70703125 254.203125 Z M381.70703125 286.203125 C380.87520465 289.12786738 380.56306934 291.78007721 380.49609375 294.81640625 C379.66794773 323.64511798 374.75568625 351.39931226 366.00390625 378.8984375 C364.62978068 383.27669977 363.63117973 387.7108101 362.70703125 392.203125 C381.06363304 369.69781755 387.96886314 332.68069925 385.2890625 304.57421875 C384.34587096 295.33629619 384.34587096 295.33629619 382.70703125 286.203125 C382.37703125 286.203125 382.04703125 286.203125 381.70703125 286.203125 Z M-318.95703125 288.6875 C-319.90151123 289.03989746 -320.84599121 289.39229492 -321.8190918 289.75537109 C-323.35303589 290.34825928 -323.35303589 290.34825928 -324.91796875 290.953125 C-325.98249268 291.35998535 -327.0470166 291.7668457 -328.14379883 292.18603516 C-363.84288954 306.00959339 -396.25013589 323.41634063 -426.29296875 347.203125 C-422.98466688 347.203125 -422.25553588 346.76279423 -419.58203125 345 C-418.84339844 344.52062988 -418.10476563 344.04125977 -417.34375 343.54736328 C-416.14298828 342.75821533 -416.14298828 342.75821533 -414.91796875 341.953125 C-382.34523344 321.01084537 -347.01738505 303.1679986 -311.29296875 288.203125 C-314.82204355 287.02676673 -315.57094529 287.4145156 -318.95703125 288.6875 Z M545.70703125 395.203125 C544.77637992 397.80894871 544.55785718 398.84510724 545.64453125 401.453125 C545.99515625 402.030625 546.34578125 402.608125 546.70703125 403.203125 C548.02703125 402.873125 549.34703125 402.543125 550.70703125 402.203125 C551.08836424 400.2117194 551.42028707 398.21033423 551.70703125 396.203125 C550.6405801 394.90678879 550.6405801 394.90678879 548.14453125 395.140625 C547.34015625 395.16125 546.53578125 395.181875 545.70703125 395.203125 Z M-773.29296875 399.203125 C-773.29296875 402.203125 -773.29296875 402.203125 -773.29296875 402.203125 Z M520.70703125 403.203125 C521.03703125 405.843125 521.36703125 408.483125 521.70703125 411.203125 C523.68703125 411.698125 523.68703125 411.698125 525.70703125 412.203125 C527.8045312 409.84343756 528.67608829 408.65695506 528.89453125 405.453125 C528.83265625 404.710625 528.77078125 403.968125 528.70703125 403.203125 C526.06703125 403.203125 523.42703125 403.203125 520.70703125 403.203125 Z M536.70703125 427.203125 C535.41069504 428.26957615 535.41069504 428.26957615 535.64453125 430.765625 C535.66515625 431.57 535.68578125 432.374375 535.70703125 433.203125 C537.02703125 433.203125 538.34703125 433.203125 539.70703125 433.203125 C540.03703125 431.553125 540.36703125 429.903125 540.70703125 428.203125 C538.76099851 427.61242486 538.76099851 427.61242486 536.70703125 427.203125 Z M-544.29296875 483.203125 C-544.95296875 484.523125 -545.61296875 485.843125 -546.29296875 487.203125 C-545.30296875 488.688125 -545.30296875 488.688125 -544.29296875 490.203125 C-542.97296875 490.203125 -541.65296875 490.203125 -540.29296875 490.203125 C-539.61338272 487.80593068 -539.61338272 487.80593068 -539.29296875 485.203125 C-539.95296875 484.543125 -540.61296875 483.883125 -541.29296875 483.203125 C-542.28296875 483.203125 -543.27296875 483.203125 -544.29296875 483.203125 Z M-553.29296875 503.203125 C-554.10264313 506.11795278 -554.51142868 507.66425717 -553.35546875 510.515625 C-553.00484375 511.0725 -552.65421875 511.629375 -552.29296875 512.203125 C-549.00220879 511.82408292 -549.00220879 511.82408292 -546.29296875 510.203125 C-546.12630208 507.203125 -546.12630208 507.203125 -546.29296875 504.203125 C-547.4183098 502.84694001 -547.4183098 502.84694001 -550.35546875 503.140625 C-551.32484375 503.16125 -552.29421875 503.181875 -553.29296875 503.203125 Z M160.70703125 572.203125 C161.03703125 573.853125 161.36703125 575.503125 161.70703125 577.203125 C162.69703125 576.543125 163.68703125 575.883125 164.70703125 575.203125 C164.70703125 574.213125 164.70703125 573.223125 164.70703125 572.203125 C163.38703125 572.203125 162.06703125 572.203125 160.70703125 572.203125 Z M181.70703125 575.203125 C182.08174821 579.95328285 182.08174821 579.95328285 184.01953125 584.203125 C185.67697378 585.39846841 185.67697378 585.39846841 187.76953125 585.078125 C190.05815555 584.25060407 190.05815555 584.25060407 191.70703125 581.203125 C191.95724695 578.11946629 191.95724695 578.11946629 191.70703125 575.203125 C190.53719681 573.80630932 190.53719681 573.80630932 187.26953125 574.078125 C183.86597541 573.9504969 183.86597541 573.9504969 181.70703125 575.203125 Z M-701.29296875 594.203125 C-702.28296875 594.863125 -703.27296875 595.523125 -704.29296875 596.203125 C-703.96296875 597.853125 -703.63296875 599.503125 -703.29296875 601.203125 C-701.97296875 601.203125 -700.65296875 601.203125 -699.29296875 601.203125 C-698.96296875 599.553125 -698.63296875 597.903125 -698.29296875 596.203125 C-699.28296875 595.543125 -700.27296875 594.883125 -701.29296875 594.203125 Z M164.70703125 602.203125 C163.71703125 603.688125 163.71703125 603.688125 162.70703125 605.203125 C163.03703125 605.863125 163.36703125 606.523125 163.70703125 607.203125 C164.69703125 606.873125 165.68703125 606.543125 166.70703125 606.203125 C166.70703125 604.883125 166.70703125 603.563125 166.70703125 602.203125 C166.04703125 602.203125 165.38703125 602.203125 164.70703125 602.203125 Z M-527.29296875 617.203125 C-525.99753489 620.02478619 -524.6026719 622.18098501 -522.4921875 624.453125 C-521.93402344 625.05543945 -521.37585938 625.65775391 -520.80078125 626.27832031 C-520.20007813 626.91350586 -519.599375 627.54869141 -518.98046875 628.203125 C-518.35527344 628.86666992 -517.73007812 629.53021484 -517.0859375 630.21386719 C-507.42057381 640.37126804 -497.1052469 649.45394554 -485.95117188 657.93896484 C-484.40608571 659.1168883 -482.87247989 660.30982862 -481.33984375 661.50390625 C-420.34784536 708.41441867 -341.89818453 730.66981704 -265.73046875 732.828125 C-264.57904388 732.86081482 -264.57904388 732.86081482 -263.40435791 732.89416504 C-237.08847248 733.6069707 -211.19021036 732.1574624 -185.29296875 727.203125 C-185.29296875 726.873125 -185.29296875 726.543125 -185.29296875 726.203125 C-185.88874725 726.18695129 -186.48452576 726.17077759 -187.09835815 726.15411377 C-282.18684223 723.53031528 -371.11615387 711.27535095 -517.18237305 624.37719727 C-520.42108829 621.66346836 -523.57507859 619.25607763 -527.29296875 617.203125 Z M-727.29296875 618.203125 C-728.23386676 623.31555682 -728.18497495 627.51720436 -727.35546875 632.640625 C-727.06349609 634.49494141 -727.06349609 634.49494141 -726.765625 636.38671875 C-726.60964844 637.31613281 -726.45367188 638.24554687 -726.29296875 639.203125 C-727.34097656 638.64431641 -727.34097656 638.64431641 -728.41015625 638.07421875 C-729.32023437 637.60113281 -730.2303125 637.12804687 -731.16796875 636.640625 C-732.07289063 636.16496094 -732.9778125 635.68929687 -733.91015625 635.19921875 C-734.69648437 634.87050781 -735.4828125 634.54179688 -736.29296875 634.203125 C-736.95296875 634.533125 -737.61296875 634.863125 -738.29296875 635.203125 C-736.64296875 637.183125 -734.99296875 639.163125 -733.29296875 641.203125 C-737.91296875 641.533125 -742.53296875 641.863125 -747.29296875 642.203125 C-746.96296875 642.863125 -746.63296875 643.523125 -746.29296875 644.203125 C-739.74871179 645.73960272 -733.00989082 646.51553998 -726.29296875 646.203125 C-726.80988281 646.97398437 -727.32679688 647.74484375 -727.859375 648.5390625 C-728.84744141 650.04339844 -728.84744141 650.04339844 -729.85546875 651.578125 C-730.51675781 652.57585938 -731.17804688 653.57359375 -731.859375 654.6015625 C-732.33246094 655.46007812 -732.80554688 656.31859375 -733.29296875 657.203125 C-732.96296875 657.863125 -732.63296875 658.523125 -732.29296875 659.203125 C-730.31296875 656.893125 -728.33296875 654.583125 -726.29296875 652.203125 C-723.16875608 655.32733767 -722.79669851 659.59769202 -721.79296875 663.79296875 C-720.8149134 667.90068492 -720.8149134 667.90068492 -718.29296875 671.203125 C-718.29296875 665.593125 -718.29296875 659.983125 -718.29296875 654.203125 C-714.14257812 656.98632812 -714.14257812 656.98632812 -709.9921875 659.76953125 C-709.10144531 660.24261719 -708.21070313 660.71570313 -707.29296875 661.203125 C-706.30296875 660.873125 -705.31296875 660.543125 -704.29296875 660.203125 C-704.57828141 656.73687969 -705.05074346 655.44038156 -707.578125 652.96484375 C-708.49464844 652.28035156 -709.41117188 651.59585938 -710.35546875 650.890625 C-711.27457031 650.19324219 -712.19367188 649.49585938 -713.140625 648.77734375 C-713.85089844 648.25785156 -714.56117188 647.73835937 -715.29296875 647.203125 C-714.32875 647.10515625 -713.36453125 647.0071875 -712.37109375 646.90625 C-710.47617187 646.68195312 -710.47617187 646.68195312 -708.54296875 646.453125 C-707.29 646.31390625 -706.03703125 646.1746875 -704.74609375 646.03125 C-701.00353572 645.13371346 -699.66880521 644.15492181 -697.29296875 641.203125 C-698.42998472 639.83779951 -698.42998472 639.83779951 -701.453125 640.10546875 C-702.74089844 640.11707031 -704.02867187 640.12867188 -705.35546875 640.140625 C-706.64582031 640.14964844 -707.93617188 640.15867187 -709.265625 640.16796875 C-710.26464844 640.17957031 -711.26367188 640.19117188 -712.29296875 640.203125 C-710.14235485 635.63070541 -707.8549245 632.76508075 -704.29296875 629.203125 C-704.29296875 628.213125 -704.29296875 627.223125 -704.29296875 626.203125 C-708.39744267 626.72089121 -710.24996398 628.84939944 -713.04296875 631.765625 C-714.24179687 633.00505859 -714.24179687 633.00505859 -715.46484375 634.26953125 C-716.068125 634.90761719 -716.67140625 635.54570313 -717.29296875 636.203125 C-718.28296875 635.873125 -719.27296875 635.543125 -720.29296875 635.203125 C-720.42574219 634.14351562 -720.55851562 633.08390625 -720.6953125 631.9921875 C-720.8735075 630.60414221 -721.05190335 629.21612269 -721.23046875 627.828125 C-721.31748047 627.12945313 -721.40449219 626.43078125 -721.49414062 625.7109375 C-721.95615003 621.83528925 -721.95615003 621.83528925 -723.29296875 618.203125 C-724.61296875 618.203125 -725.93296875 618.203125 -727.29296875 618.203125 Z M424.70703125 646.203125 C423.71703125 647.688125 423.71703125 647.688125 422.70703125 649.203125 C423.69703125 648.873125 424.68703125 648.543125 425.70703125 648.203125 C425.37703125 647.543125 425.04703125 646.883125 424.70703125 646.203125 Z M418.70703125 651.203125 C417.82402344 652.03714844 416.94101563 652.87117187 416.03125 653.73046875 C409.72090367 659.65962947 403.3686933 665.42139116 396.60546875 670.8359375 C393.1317126 673.67299441 389.7667667 676.62188597 386.39453125 679.578125 C379.92614575 685.22803833 373.26261541 690.56320142 366.47509766 695.82177734 C363.42164928 698.20736294 360.41154851 700.64675937 357.39453125 703.078125 C352.02428952 707.39904145 346.57614773 711.60367647 341.08203125 715.765625 C334.34100918 720.8827594 327.85424489 726.2249684 321.43066406 731.73144531 C303.2377505 747.26499814 284.13645489 761.03508975 264.26953125 774.328125 C263.04662384 775.14875427 263.04662384 775.14875427 261.79901123 775.98596191 C223.55042151 801.61181582 182.74231356 823.46798999 140.70703125 842.203125 C139.67672791 842.66268585 139.67672791 842.66268585 138.62561035 843.13153076 C63.3215466 876.66360934 -15.59005617 903.77142831 -157.29296875 921.203125 C-158.04222626 921.25967255 -158.79148376 921.31622009 -159.56344604 921.3744812 C-174.5879788 922.45885225 -189.64872804 922.39052288 -204.70385742 922.38842773 C-207.61863481 922.38834701 -210.53325324 922.39522007 -213.44799805 922.40893555 C-242.29413073 922.54204026 -270.66580299 920.83228786 -299.29296875 917.078125 C-302.52443331 916.66045929 -305.75619802 916.2454391 -308.98852539 915.83450317 C-310.96352605 915.58285279 -312.93801848 915.32716647 -314.91186523 915.06661987 C-319.40717499 914.48841583 -323.74826743 914.05357874 -328.29296875 914.203125 C-323.52368721 917.38264602 -318.07208508 918.52757362 -312.60546875 920.140625 C-311.46529297 920.48802734 -310.32511719 920.83542969 -309.15039062 921.19335938 C-294.96772439 925.40297132 -281.18995787 927.59253923 -266.41796875 928.265625 C-264.47378574 928.36570782 -262.52960479 928.46584004 -260.58551025 928.56762695 C-259.14988273 928.6416624 -257.71412238 928.71315399 -256.27825928 928.7824707 C-251.14797939 929.0349145 -246.02437365 929.34890574 -240.89941406 929.69335938 C-221.1031574 931.00566511 -201.37919 931.57920765 -181.54003906 931.57373047 C-178.36077433 931.5735667 -175.18207851 931.58770949 -172.00292969 931.61474609 C-153.38656235 931.7701852 -135.51712226 931.2564337 -117.15637207 927.74743652 C-114.39247566 927.22204052 -111.62487277 926.73952745 -108.85058594 926.27246094 C-14.66688232 910.29432548 76.03176753 880.1478736 161.70703125 838.203125 C162.71072754 837.71489258 163.71442383 837.22666016 164.74853516 836.72363281 C179.72683823 829.42570901 194.31814401 821.60242555 208.70703125 813.203125 C209.69783691 812.62723633 210.68864258 812.05134766 211.70947266 811.45800781 C240.24894736 794.80883805 267.27038206 775.88204731 294.20849609 756.78417969 C298.2584472 753.91663254 302.32687501 751.07773571 306.41015625 748.2578125 C316.70969549 741.14330154 326.93765669 734.03833587 336.70703125 726.203125 C337.32594238 725.70748047 337.94485352 725.21183594 338.58251953 724.70117188 C346.18593138 718.6006523 353.70767576 712.40946405 361.125 706.08398438 C364.44381985 703.25638288 367.80878165 700.49697425 371.20703125 697.765625 C376.59276539 693.38627622 381.65519924 688.70267662 386.7265625 683.96875 C388.97301814 681.87401576 391.25176553 679.82982831 393.58203125 677.828125 C402.97058442 669.69803747 412.05157253 661.10746273 420.70703125 652.203125 C420.04703125 651.873125 419.38703125 651.543125 418.70703125 651.203125 Z M-639.48046875 725.140625 C-640.07859375 725.49125 -640.67671875 725.841875 -641.29296875 726.203125 C-640.30296875 728.183125 -639.31296875 730.163125 -638.29296875 732.203125 C-636.97296875 731.543125 -635.65296875 730.883125 -634.29296875 730.203125 C-634.29296875 728.553125 -634.29296875 726.903125 -634.29296875 725.203125 C-637.18483661 723.87007802 -637.18483661 723.87007802 -639.48046875 725.140625 Z M-181.29296875 725.203125 C-181.29296875 725.533125 -181.29296875 725.863125 -181.29296875 726.203125 C-179.64296875 726.203125 -177.99296875 726.203125 -176.29296875 726.203125 C-176.29296875 725.873125 -176.29296875 725.543125 -176.29296875 725.203125 C-177.94296875 725.203125 -179.59296875 725.203125 -181.29296875 725.203125 Z M210.70703125 729.203125 C210.45969988 733.34589375 210.45969988 733.34589375 211.70703125 737.203125 C213.35703125 736.873125 215.00703125 736.543125 216.70703125 736.203125 C217.36703125 734.223125 218.02703125 732.243125 218.70703125 730.203125 C216.874378 727.93472517 216.874378 727.93472517 214.14453125 728.015625 C211.76013402 727.93309177 211.76013402 727.93309177 210.70703125 729.203125 Z M201.70703125 749.203125 C200.49927545 752.82639239 201.16391997 753.84458869 202.70703125 757.203125 C204.35703125 756.873125 206.00703125 756.543125 207.70703125 756.203125 C208.08836424 754.2117194 208.42028707 752.21033423 208.70703125 750.203125 C207.5816902 748.84694001 207.5816902 748.84694001 204.64453125 749.140625 C203.67515625 749.16125 202.70578125 749.181875 201.70703125 749.203125 Z M228.70703125 754.203125 C228.01543724 756.05037552 228.01543724 756.05037552 227.70703125 758.203125 C228.69703125 759.688125 228.69703125 759.688125 229.70703125 761.203125 C231.72325455 760.48749234 231.72325455 760.48749234 233.70703125 759.203125 C234.60285298 757.20652046 234.60285298 757.20652046 234.70703125 755.203125 C233.6405801 753.90678879 233.6405801 753.90678879 231.14453125 754.140625 C230.34015625 754.16125 229.53578125 754.181875 228.70703125 754.203125 Z M-623.29296875 764.203125 C-622.96296875 766.513125 -622.63296875 768.823125 -622.29296875 771.203125 C-620.40117672 771.8846073 -620.40117672 771.8846073 -618.29296875 772.203125 C-615.92740166 769.83755791 -615.71052834 768.46008979 -615.29296875 765.203125 C-616.47721201 763.78735023 -616.47721201 763.78735023 -619.85546875 764.140625 C-621.55703125 764.1715625 -621.55703125 764.1715625 -623.29296875 764.203125 Z M-708.29296875 817.203125 C-707.29296875 819.203125 -707.29296875 819.203125 -707.29296875 819.203125 Z M-707.29296875 819.203125 C-705.8822859 824.11411181 -703.69792561 828.22740544 -700.98046875 832.515625 C-700.54605469 833.20567627 -700.11164063 833.89572754 -699.6640625 834.60668945 C-694.82111535 842.15253847 -689.36168168 849.19938233 -683.82421875 856.24267578 C-682.43026563 858.02734471 -681.05901268 859.82596191 -679.69921875 861.63671875 C-669.70146416 874.89672768 -658.71158561 886.96599675 -646.98046875 898.703125 C-646.46272888 899.22186188 -645.94498901 899.74059875 -645.41156006 900.27505493 C-639.55049297 906.1348452 -633.59664888 911.81656166 -627.29296875 917.203125 C-625.68528502 918.65758017 -624.0805716 920.11533395 -622.48046875 921.578125 C-617.75763135 925.82939315 -612.92568268 929.90907459 -607.95849609 933.87207031 C-606.78126253 934.8128908 -605.60742947 935.75797378 -604.43603516 936.70605469 C-585.32881511 952.13934799 -564.88490518 965.50876889 -543.29296875 977.203125 C-541.61074219 978.13705078 -541.61074219 978.13705078 -539.89453125 979.08984375 C-537.25584777 980.55961652 -537.25584777 980.55961652 -534.29296875 979.203125 C-536.68693479 977.24246989 -539.0826258 975.28403172 -541.48046875 973.328125 C-542.57053223 972.43891357 -542.57053223 972.43891357 -543.68261719 971.53173828 C-548.07614149 967.96211996 -552.52080093 964.48246924 -557.04296875 961.078125 C-561.92407996 957.36004399 -566.44557845 953.41804117 -570.92163086 949.2355957 C-575.85195974 944.63930654 -581.02914159 940.40865314 -586.29296875 936.203125 C-587.48205656 935.24514622 -588.67084235 934.28679246 -589.859375 933.328125 C-595.31270405 928.93920447 -600.77528655 924.57480411 -606.36499023 920.36035156 C-612.42198232 915.7871715 -618.05511618 910.90942609 -623.59375 905.72265625 C-625.79332642 903.66950605 -628.01663268 901.66969162 -630.29296875 899.703125 C-634.65050543 895.92179152 -638.8910704 892.01533535 -643.1328125 888.10546875 C-645.23747089 886.16667546 -647.35490411 884.24352994 -649.484375 882.33203125 C-654.52314286 877.79471506 -659.35036946 873.23522875 -663.71875 868.03125 C-665.33140437 866.15849009 -667.02833558 864.43269923 -668.79296875 862.703125 C-672.50484065 859.04041697 -675.90308393 855.16333071 -679.29296875 851.203125 C-680.20036239 850.14830118 -681.10792783 849.09362514 -682.015625 848.0390625 C-686.14254612 843.23830312 -690.26488785 838.43424752 -694.3359375 833.5859375 C-694.82288086 833.00674561 -695.30982422 832.42755371 -695.81152344 831.83081055 C-696.72703905 830.74028842 -697.64059903 829.64812007 -698.55175781 828.55395508 C-701.31933282 825.25747284 -704.21495445 822.20405128 -707.29296875 819.203125 Z M12.4921875 832.01171875 C10.78146847 832.42976062 9.07060529 832.8472129 7.35961914 833.26416016 C5.99814255 833.60051483 5.99814255 833.60051483 4.60916138 833.94366455 C-67.76422476 851.70703001 -142.8139515 860.48724841 -217.28790283 861.18096924 C-219.99701489 861.21090463 -222.70539506 861.26748537 -225.4140625 861.32421875 C-279.00763245 862.20831926 -333.98366945 856.05672382 -386.48046875 845.578125 C-387.18318909 845.43805023 -387.88590942 845.29797546 -388.60992432 845.15365601 C-397.24634765 843.41405444 -405.72442888 841.33764542 -414.17700195 838.86181641 C-417.10993142 838.24181768 -418.54389979 838.14366335 -421.29296875 839.203125 C-416.20059806 842.59803879 -410.14883981 843.69819286 -404.29296875 845.328125 C-403.58757965 845.52532135 -402.88219055 845.7225177 -402.15542603 845.9256897 C-321.40990235 868.40455792 -237.78733274 875.07521783 -0.23046875 839.390625 C1.01694092 839.02984863 2.26435059 838.66907227 3.54956055 838.29736328 C10.70620564 836.1885209 17.73200615 833.85219492 24.70703125 831.203125 C20.32448077 829.85992991 16.82437478 830.90483198 12.4921875 832.01171875 Z M-448.29296875 868.203125 C-449.25646597 870.80456751 -449.30536255 872.14983165 -448.66796875 874.890625 C-447.48725848 877.46418875 -447.48725848 877.46418875 -444.66796875 878.015625 C-443.88421875 878.0775 -443.10046875 878.139375 -442.29296875 878.203125 C-439.68537308 873.35843761 -439.68537308 873.35843761 -440.29296875 868.203125 C-442.93296875 868.203125 -445.57296875 868.203125 -448.29296875 868.203125 Z M-428.29296875 1009.203125 C-427.96296875 1011.513125 -427.63296875 1013.823125 -427.29296875 1016.203125 C-425.64296875 1016.533125 -423.99296875 1016.863125 -422.29296875 1017.203125 C-420.52834192 1014.11502805 -420.29296875 1012.97000364 -420.29296875 1009.203125 C-424.3952046 1008.18772388 -424.3952046 1008.18772388 -428.29296875 1009.203125 Z M-412.29296875 1022.203125 C-411.96296875 1023.853125 -411.63296875 1025.503125 -411.29296875 1027.203125 C-410.30296875 1027.533125 -409.31296875 1027.863125 -408.29296875 1028.203125 C-407.96296875 1026.553125 -407.63296875 1024.903125 -407.29296875 1023.203125 C-408.94296875 1022.873125 -410.59296875 1022.543125 -412.29296875 1022.203125 Z " fill="#AC80BD" transform="translate(890.29296875,-0.203125)"/>
</svg>
